<svg width="10" height="6" viewBox="0 0 10 6" fill="none" xmlns="http://www.w3.org/2000/svg">
<path d="M1.5293 0.469978L4.64915 3.58983L7.76901 0.469978C7.84345 0.395535 7.93183 0.336483 8.0291 0.296194C8.12636 0.255905 8.23061 0.235168 8.33589 0.235168C8.44117 0.235168 8.54542 0.255905 8.64268 0.296194C8.73995 0.336483 8.82833 0.395535 8.90277 0.469978C8.97722 0.544422 9.03627 0.6328 9.07656 0.730066C9.11684 0.827331 9.13758 0.93158 9.13758 1.03686C9.13758 1.14214 9.11684 1.24639 9.07656 1.34365C9.03627 1.44092 8.97722 1.5293 8.90277 1.60374L5.21201 5.2945C5.13762 5.36904 5.04926 5.42818 4.95199 5.46853C4.85472 5.50888 4.75044 5.52965 4.64513 5.52965C4.53982 5.52965 4.43555 5.50888 4.33827 5.46853C4.241 5.42818 4.15264 5.36904 4.07825 5.2945L0.387494 1.60374C0.312952 1.52935 0.253814 1.44099 0.213463 1.34372C0.173113 1.24645 0.152344 1.14217 0.152344 1.03686C0.152344 0.931549 0.173113 0.827274 0.213463 0.730001C0.253814 0.632727 0.312952 0.544367 0.387494 0.469978C0.701088 0.164426 1.2157 0.156385 1.5293 0.469978Z" fill="#262626"/>
</svg>
