<svg width="14" height="14" viewBox="0 0 14 14" fill="none" xmlns="http://www.w3.org/2000/svg">
<path d="M7.00007 0.875C6.53594 0.875 6.09082 1.05937 5.76263 1.38756C5.43444 1.71575 5.25007 2.16087 5.25007 2.625V4.375H4.37507V2.625C4.37507 1.92881 4.65163 1.26113 5.14391 0.768845C5.63619 0.276562 6.30387 0 7.00007 0C7.69626 0 8.36394 0.276562 8.85622 0.768845C9.34851 1.26113 9.62507 1.92881 9.62507 2.625V4.375H8.75007V2.625C8.75007 2.16087 8.56569 1.71575 8.2375 1.38756C7.90932 1.05937 7.4642 0.875 7.00007 0.875ZM4.37507 4.375H2.94007C2.62583 4.37507 2.32205 4.48788 2.08393 4.69292C1.84581 4.89796 1.68916 5.18163 1.64244 5.49237L0.743817 11.4888C0.697256 11.7999 0.718354 12.1174 0.805671 12.4196C0.892988 12.7219 1.04447 13.0017 1.24978 13.2401C1.45509 13.4785 1.70941 13.6697 1.99537 13.8009C2.28133 13.932 2.59222 13.9999 2.90682 14H11.0924C11.4071 14.0001 11.7181 13.9322 12.0042 13.8012C12.2902 13.6701 12.5447 13.4788 12.7501 13.2404C12.9555 13.002 13.107 12.7222 13.1944 12.4199C13.2818 12.1175 13.3029 11.8 13.2563 11.4888L12.3568 5.49237C12.3101 5.18178 12.1536 4.89823 11.9157 4.6932C11.6777 4.48818 11.3742 4.37528 11.0601 4.375H9.62507V5.6875C9.62507 5.80353 9.57897 5.91481 9.49693 5.99686C9.41488 6.07891 9.3036 6.125 9.18757 6.125C9.07154 6.125 8.96026 6.07891 8.87821 5.99686C8.79616 5.91481 8.75007 5.80353 8.75007 5.6875V4.375H5.25007V5.6875C5.25007 5.80353 5.20397 5.91481 5.12193 5.99686C5.03988 6.07891 4.9286 6.125 4.81257 6.125C4.69653 6.125 4.58526 6.07891 4.50321 5.99686C4.42116 5.91481 4.37507 5.80353 4.37507 5.6875V4.375Z" fill="white"/>
</svg>
