<svg width="16" height="19" viewBox="0 0 16 19" fill="none" xmlns="http://www.w3.org/2000/svg">
<path d="M15.6216 12.511C15.5531 12.4313 15.4859 12.3515 15.4199 12.2746C14.5124 11.2136 13.9634 10.5732 13.9634 7.56963C13.9634 6.01461 13.5786 4.7387 12.8201 3.78176C12.2608 3.07483 11.5047 2.53854 10.5082 2.14221C10.4953 2.13532 10.4839 2.12627 10.4743 2.1155C10.1159 0.955212 9.13504 0.178101 8.02879 0.178101C6.92254 0.178101 5.94209 0.955212 5.58366 2.1143C5.57409 2.12468 5.5628 2.13344 5.55025 2.14022C3.22473 3.06565 2.09455 4.84117 2.09455 7.56844C2.09455 10.5732 1.54638 11.2136 0.638111 12.2734C0.572116 12.3503 0.504883 12.4285 0.436412 12.5098C0.259544 12.716 0.147484 12.9669 0.113493 13.2327C0.0795023 13.4985 0.125004 13.7682 0.244612 14.0098C0.499108 14.5282 1.04151 14.8499 1.66063 14.8499H14.4015C15.0177 14.8499 15.5564 14.5286 15.8117 14.0126C15.9319 13.7709 15.9778 13.501 15.9441 13.2349C15.9104 12.9688 15.7985 12.7175 15.6216 12.511V12.511ZM8.02879 18.0409C8.62483 18.0404 9.20962 17.884 9.72115 17.5883C10.2327 17.2925 10.6519 16.8685 10.9342 16.3611C10.9476 16.3368 10.9541 16.3095 10.9533 16.282C10.9525 16.2545 10.9444 16.2277 10.9297 16.2042C10.915 16.1806 10.8942 16.1611 10.8695 16.1476C10.8447 16.1341 10.8167 16.127 10.7882 16.127H5.27018C5.24168 16.1269 5.21365 16.134 5.18881 16.1475C5.16397 16.1609 5.14316 16.1804 5.12842 16.204C5.11367 16.2276 5.10549 16.2544 5.10468 16.2819C5.10386 16.3095 5.11043 16.3367 5.12375 16.3611C5.4061 16.8684 5.82522 17.2925 6.33667 17.5882C6.84812 17.8839 7.43282 18.0404 8.02879 18.0409Z" fill="#010B1B"/>
</svg>
