<svg width="22" height="22" viewBox="0 0 22 22" fill="none" xmlns="http://www.w3.org/2000/svg">
<path d="M20.7531 16.9978C20.7531 17.3389 20.6772 17.6895 20.5159 18.0306C20.3546 18.3717 20.1458 18.6939 19.8706 18.9971C19.4056 19.5087 18.8932 19.8782 18.3144 20.1151C17.745 20.352 17.1282 20.4752 16.4639 20.4752C15.496 20.4752 14.4617 20.2478 13.3704 19.7835C12.2791 19.3192 11.1878 18.6939 10.1061 17.9074C9.01478 17.1115 7.98044 16.2303 6.99354 15.2544C6.01614 14.269 5.13363 13.2362 4.34601 12.156C3.56788 11.0758 2.94158 9.99568 2.48609 8.92499C2.0306 7.84482 1.80286 6.81203 1.80286 5.82662C1.80286 5.18231 1.91673 4.56642 2.14447 3.99791C2.37222 3.41993 2.73282 2.88932 3.23575 2.41557C3.84307 1.81863 4.50733 1.5249 5.20954 1.5249C5.47524 1.5249 5.74095 1.58175 5.97818 1.69545C6.2249 1.80916 6.44316 1.97971 6.61397 2.22606L8.8155 5.32443C8.98631 5.56131 9.10967 5.77924 9.19508 5.98769C9.28048 6.18667 9.32793 6.38565 9.32793 6.56568C9.32793 6.79308 9.2615 7.02048 9.12865 7.23841C9.00529 7.45634 8.82499 7.68374 8.59725 7.91115L7.87606 8.65968C7.77167 8.76391 7.72423 8.88709 7.72423 9.03869C7.72423 9.11449 7.73372 9.18081 7.75269 9.25662C7.78116 9.33242 7.80963 9.38927 7.82861 9.44612C7.99942 9.7588 8.29359 10.1662 8.71112 10.6589C9.13814 11.1516 9.59363 11.6538 10.0871 12.156C10.5995 12.6582 11.093 13.1225 11.5959 13.5489C12.0893 13.9658 12.4974 14.25 12.82 14.4206C12.8675 14.4395 12.9244 14.4679 12.9908 14.4964C13.0667 14.5248 13.1427 14.5343 13.2281 14.5343C13.3894 14.5343 13.5127 14.4774 13.6171 14.3732L14.3383 13.6626C14.5756 13.4257 14.8033 13.2456 15.0216 13.1319C15.2398 12.9993 15.4581 12.933 15.6953 12.933C15.8756 12.933 16.0654 12.9709 16.2742 13.0561C16.4829 13.1414 16.7012 13.2646 16.9384 13.4257L20.0794 15.6523C20.3261 15.8229 20.4969 16.0219 20.6013 16.2587C20.6962 16.4956 20.7531 16.7325 20.7531 16.9978Z" stroke="#206DD6" stroke-width="2.40638" stroke-miterlimit="10"/>
</svg>
