<svg width="48" height="38" viewBox="0 0 48 38" fill="none" xmlns="http://www.w3.org/2000/svg">
<path d="M0.739258 8.12467C0.739258 6.12828 1.53232 4.21367 2.94398 2.80201C4.35563 1.39035 6.27025 0.59729 8.26664 0.59729H40.0489C42.0453 0.59729 43.9599 1.39035 45.3716 2.80201C46.7832 4.21367 47.5763 6.12828 47.5763 8.12467V29.8704C47.5763 31.8668 46.7832 33.7814 45.3716 35.1931C43.9599 36.6047 42.0453 37.3978 40.0489 37.3978H8.26664C6.27025 37.3978 4.35563 36.6047 2.94398 35.1931C1.53232 33.7814 0.739258 31.8668 0.739258 29.8704V8.12467ZM8.26664 3.94279C7.15753 3.94279 6.09386 4.38338 5.3096 5.16763C4.52535 5.95189 4.08476 7.01557 4.08476 8.12467V10.6338H44.2308V8.12467C44.2308 7.01557 43.7902 5.95189 43.0059 5.16763C42.2217 4.38338 41.158 3.94279 40.0489 3.94279H8.26664ZM4.08476 29.8704C4.08476 30.9795 4.52535 32.0432 5.3096 32.8275C6.09386 33.6117 7.15753 34.0523 8.26664 34.0523H40.0489C41.158 34.0523 42.2217 33.6117 43.0059 32.8275C43.7902 32.0432 44.2308 30.9795 44.2308 29.8704V13.9793H4.08476V29.8704ZM32.5215 24.0158H37.5398C37.9834 24.0158 38.4089 24.192 38.7226 24.5057C39.0363 24.8194 39.2125 25.2449 39.2125 25.6886C39.2125 26.1322 39.0363 26.5577 38.7226 26.8714C38.4089 27.1851 37.9834 27.3613 37.5398 27.3613H32.5215C32.0779 27.3613 31.6524 27.1851 31.3387 26.8714C31.025 26.5577 30.8488 26.1322 30.8488 25.6886C30.8488 25.2449 31.025 24.8194 31.3387 24.5057C31.6524 24.192 32.0779 24.0158 32.5215 24.0158Z" fill="white"/>
</svg>
