<svg width="185" height="30" viewBox="0 0 185 30" fill="none" xmlns="http://www.w3.org/2000/svg">
<rect x="143" y="0.5" width="41.5" height="29" rx="3.5" fill="white" stroke="#B2BCCA"/>
<path fill-rule="evenodd" clip-rule="evenodd" d="M163.974 21.0367C162.494 22.2844 160.574 23.0375 158.476 23.0375C153.795 23.0375 150 19.2879 150 14.6625C150 10.0372 153.795 6.28754 158.476 6.28754C160.574 6.28754 162.494 7.04072 163.974 8.28837C165.454 7.04072 167.374 6.28754 169.472 6.28754C174.153 6.28754 177.948 10.0372 177.948 14.6625C177.948 19.2879 174.153 23.0375 169.472 23.0375C167.374 23.0375 165.454 22.2844 163.974 21.0367Z" fill="#ED0006"/>
<path fill-rule="evenodd" clip-rule="evenodd" d="M163.975 21.0367C165.797 19.5006 166.952 17.2149 166.952 14.6625C166.952 12.1102 165.797 9.8245 163.975 8.28837C165.455 7.04072 167.375 6.28754 169.473 6.28754C174.154 6.28754 177.949 10.0372 177.949 14.6625C177.949 19.2879 174.154 23.0375 169.473 23.0375C167.375 23.0375 165.455 22.2844 163.975 21.0367Z" fill="#F9A000"/>
<path fill-rule="evenodd" clip-rule="evenodd" d="M163.974 21.0366C162.152 19.5004 160.996 17.2147 160.996 14.6624C160.996 12.11 162.152 9.82435 163.974 8.28822C165.796 9.82435 166.952 12.11 166.952 14.6624C166.952 17.2147 165.796 19.5004 163.974 21.0366Z" fill="#FD6020"/>
<rect x="48" y="0.5" width="41.5" height="29" rx="3.5" fill="white" stroke="#B2BCCA"/>
<path d="M70.5 29L89.5 23.25V26C89.5 27.6569 88.1569 29 86.5 29H70.5Z" fill="#FD6020"/>
<path fill-rule="evenodd" clip-rule="evenodd" d="M84.2426 11.3886C85.5493 11.3886 86.2679 11.9931 86.2679 13.1348C86.3332 14.0078 85.7453 14.7466 84.9613 14.8809L86.7252 17.3657H85.3533L83.8507 14.948H83.72V17.3657H82.6094V11.3886H84.2426ZM83.7207 14.1421H84.0474C84.766 14.1421 85.0926 13.8063 85.0926 13.2019C85.0926 12.6646 84.766 12.3288 84.0474 12.3288H83.7207V14.1421ZM78.7539 17.3657H81.8898V16.3584H79.8645V14.7466H81.8245V13.7392H79.8645V12.396H81.8898V11.3886H78.7539V17.3657ZM75.4872 15.4181L73.9846 11.3886H72.8086L75.2258 17.5001H75.8138L78.2311 11.3886H77.0551L75.4872 15.4181ZM62.2246 14.4106C62.2246 16.0896 63.5312 17.4999 65.1645 17.4999C65.6871 17.4999 66.1445 17.3656 66.6018 17.1641V15.821C66.2751 16.2239 65.8178 16.4926 65.2952 16.4926C64.2499 16.4926 63.4006 15.6867 63.4006 14.6121V14.4778C63.3352 13.4033 64.1845 12.463 65.2298 12.3959C65.7525 12.3959 66.2751 12.6645 66.6018 13.0675V11.7243C66.2098 11.4557 65.6871 11.3885 65.2298 11.3885C63.5312 11.2542 62.2246 12.6645 62.2246 14.4106ZM60.1998 13.672C59.5465 13.4033 59.3505 13.269 59.3505 12.9332C59.4158 12.5303 59.7424 12.1945 60.1344 12.2616C60.4611 12.2616 60.7877 12.4631 61.0491 12.7317L61.637 11.9258C61.1797 11.5229 60.5918 11.2542 60.0038 11.2542C59.0891 11.1871 58.3052 11.9258 58.2398 12.8661V12.9332C58.2398 13.7391 58.5665 14.2092 59.6118 14.545C59.8731 14.6122 60.1344 14.7465 60.3958 14.8808C60.5918 15.0151 60.7224 15.2166 60.7224 15.4852C60.7224 15.9554 60.3304 16.3583 59.9384 16.3583H59.8731C59.3505 16.3583 58.8931 16.0225 58.6972 15.5524L57.9785 16.2911C58.3705 17.0299 59.1545 17.4328 59.9384 17.4328C60.9837 17.5 61.833 16.6941 61.8984 15.6196V15.4181C61.833 14.6122 61.5064 14.2092 60.1998 13.672ZM56.4102 17.3657H57.5208V11.3886H56.4102V17.3657ZM51.25 11.3886H52.8833H53.2099C54.7779 11.4558 56.0192 12.799 55.9538 14.4108C55.9538 15.2838 55.5618 16.0897 54.9085 16.6942C54.3206 17.1643 53.6019 17.4329 52.8833 17.3658H51.25V11.3886ZM52.688 16.3584C53.2106 16.4256 53.7986 16.2241 54.1906 15.8883C54.5826 15.4854 54.7786 14.9481 54.7786 14.3437C54.7786 13.8064 54.5826 13.2691 54.1906 12.8662C53.7986 12.5304 53.2106 12.3289 52.688 12.3961H52.3613V16.3584H52.688Z" fill="black"/>
<path fill-rule="evenodd" clip-rule="evenodd" d="M69.9349 11.25C68.3016 11.25 66.9297 12.5932 66.9297 14.3393C66.9297 16.0183 68.2363 17.4286 69.9349 17.4958C71.6335 17.5629 72.9401 16.1526 73.0055 14.4065C72.9401 12.6603 71.6335 11.25 69.9349 11.25V11.25Z" fill="#FD6020"/>
<rect x="0.5" y="0.5" width="41.5" height="29" rx="3.5" fill="white" stroke="#B2BCCA"/>
<path fill-rule="evenodd" clip-rule="evenodd" d="M13.4378 19.8228H10.8631L8.93244 12.2404C8.84081 11.8916 8.64623 11.5833 8.36002 11.4379C7.64573 11.0727 6.85864 10.7821 6 10.6355V10.3436H10.1476C10.72 10.3436 11.1494 10.7821 11.2209 11.2914L12.2227 16.7607L14.7961 10.3436H17.2992L13.4378 19.8228ZM18.7303 19.8228H16.2988L18.301 10.3436H20.7326L18.7303 19.8228ZM23.8779 12.9696C23.9495 12.4591 24.3788 12.1672 24.8797 12.1672C25.6667 12.0939 26.5241 12.2405 27.2397 12.6044L27.669 10.5635C26.9535 10.2716 26.1664 10.125 25.4521 10.125C23.0921 10.125 21.3748 11.438 21.3748 13.2603C21.3748 14.6466 22.5912 15.3745 23.4498 15.813C24.3788 16.2503 24.7365 16.5422 24.665 16.9794C24.665 17.6353 23.9495 17.9272 23.2352 17.9272C22.3765 17.9272 21.5179 17.7086 20.7321 17.3434L20.3027 19.3856C21.1614 19.7495 22.0903 19.8961 22.949 19.8961C25.5952 19.9681 27.2397 18.6564 27.2397 16.6875C27.2397 14.2081 23.8779 14.0627 23.8779 12.9696ZM35.7494 19.8227L33.8187 10.3436H31.7449C31.3156 10.3436 30.8863 10.6355 30.7431 11.0727L27.168 19.8227H29.6711L30.1707 18.4377H33.2463L33.5325 19.8227H35.7494ZM32.1024 12.8962L32.8167 16.4688H30.8145L32.1024 12.8962Z" fill="#28356A"/>
<rect x="95.5" y="0.5" width="41.5" height="29" rx="3.5" fill="white" stroke="#B2BCCA"/>
<path d="M119.072 14.6323C119.072 19.2616 115.362 23.0145 110.786 23.0145C106.21 23.0145 102.5 19.2616 102.5 14.6323C102.5 10.0029 106.21 6.25006 110.786 6.25006C115.362 6.25006 119.072 10.0029 119.072 14.6323Z" fill="#ED0006"/>
<path d="M129.822 14.6323C129.822 19.2616 126.112 23.0145 121.536 23.0145C116.96 23.0145 113.25 19.2616 113.25 14.6323C113.25 10.0029 116.96 6.25006 121.536 6.25006C126.112 6.25006 129.822 10.0029 129.822 14.6323Z" fill="#2F80ED"/>
<path fill-rule="evenodd" clip-rule="evenodd" d="M116.161 21.0118C117.942 19.4744 119.072 17.1868 119.072 14.6323C119.072 12.0778 117.942 9.79016 116.161 8.25272C114.38 9.79016 113.25 12.0778 113.25 14.6323C113.25 17.1868 114.38 19.4744 116.161 21.0118Z" fill="#6C6BBD"/>
</svg>
