<svg width="19" height="18" viewBox="0 0 19 18" fill="none" xmlns="http://www.w3.org/2000/svg">
<path d="M18.8788 4.47721L17.8389 10.1801C17.7531 10.6512 17.5048 11.0772 17.1371 11.3841C16.7695 11.6909 16.306 11.8591 15.8271 11.8594H5.93877L6.31384 13.9052H15.4776C15.8822 13.9052 16.2778 14.0252 16.6142 14.25C16.9507 14.4748 17.2129 14.7943 17.3677 15.1682C17.5226 15.542 17.5631 15.9534 17.4842 16.3502C17.4052 16.7471 17.2104 17.1116 16.9242 17.3977C16.6381 17.6839 16.2736 17.8787 15.8767 17.9576C15.4799 18.0366 15.0685 17.9961 14.6947 17.8412C14.3209 17.6864 14.0013 17.4242 13.7765 17.0877C13.5517 16.7513 13.4317 16.3557 13.4317 15.9511C13.4318 15.7186 13.4722 15.4879 13.5511 15.2691H8.53872C8.61761 15.4879 8.65799 15.7186 8.65806 15.9511C8.65868 16.2812 8.57941 16.6065 8.42704 16.8993C8.27466 17.1921 8.0537 17.4437 7.78301 17.6326C7.51232 17.8215 7.19995 17.9421 6.87254 17.9841C6.54514 18.0261 6.21244 17.9883 5.90283 17.8739C5.59322 17.7594 5.3159 17.5717 5.09455 17.3269C4.87319 17.082 4.71437 16.7872 4.63164 16.4677C4.54891 16.1481 4.54473 15.8133 4.61945 15.4918C4.69417 15.1703 4.84558 14.8716 5.06075 14.6213L2.69949 1.63005H1.15656C0.975698 1.63005 0.80224 1.5582 0.674349 1.43031C0.546458 1.30242 0.474609 1.12896 0.474609 0.948098C0.474609 0.767233 0.546458 0.593775 0.674349 0.465884C0.80224 0.337992 0.975698 0.266144 1.15656 0.266144H2.69949C3.01782 0.26684 3.32589 0.378865 3.57031 0.582813C3.81474 0.78676 3.98012 1.06978 4.03782 1.38284L4.45552 3.67592H18.2054C18.305 3.67612 18.4033 3.6984 18.4932 3.74115C18.5831 3.78389 18.6624 3.84604 18.7254 3.92312C18.7914 3.99778 18.8394 4.08647 18.866 4.18247C18.8926 4.27847 18.897 4.37927 18.8788 4.47721Z" fill="#010B1B"/>
</svg>
