<svg width="19" height="19" viewBox="0 0 19 19" fill="none" xmlns="http://www.w3.org/2000/svg">
<path d="M17.366 9.85273L18.3668 4.36484C18.3843 4.27059 18.38 4.1736 18.3545 4.08122C18.3289 3.98883 18.2826 3.90349 18.2191 3.83164C18.1585 3.75747 18.0822 3.69766 17.9957 3.65652C17.9091 3.61539 17.8146 3.59395 17.7188 3.59375H4.48711L4.08516 1.38711C4.02963 1.08585 3.87048 0.813493 3.63527 0.617233C3.40006 0.420973 3.1036 0.31317 2.79727 0.3125H1.3125C1.13845 0.3125 0.971532 0.38164 0.848461 0.504711C0.72539 0.627782 0.65625 0.794702 0.65625 0.96875C0.65625 1.1428 0.72539 1.30972 0.848461 1.43279C0.971532 1.55586 1.13845 1.625 1.3125 1.625H2.79727L5.04492 14.0117C4.72446 14.294 4.48904 14.66 4.36509 15.0687C4.24114 15.4773 4.23358 15.9125 4.34326 16.3252C4.45293 16.7379 4.67549 17.1119 4.98596 17.4051C5.29642 17.6984 5.68248 17.8992 6.10079 17.9852C6.5191 18.0711 6.95309 18.0388 7.35402 17.8917C7.75495 17.7447 8.10695 17.4887 8.37048 17.1527C8.63401 16.8167 8.79864 16.4138 8.84587 15.9894C8.89311 15.565 8.82109 15.1358 8.63789 14.75H13.0184C12.8051 15.1997 12.7436 15.7064 12.8432 16.1941C12.9428 16.6817 13.1981 17.1237 13.5706 17.4537C13.9432 17.7837 14.4128 17.9838 14.9089 18.0238C15.405 18.0638 15.9006 17.9416 16.3213 17.6756C16.7419 17.4096 17.0648 17.0142 17.2412 16.5488C17.4177 16.0835 17.4383 15.5734 17.2998 15.0954C17.1613 14.6173 16.8714 14.1972 16.4735 13.8982C16.0756 13.5992 15.5914 13.4375 15.0938 13.4375H6.27539L5.91445 11.4688H15.4301C15.8909 11.4685 16.337 11.3067 16.6907 11.0114C17.0445 10.7161 17.2835 10.3061 17.366 9.85273ZM7.54688 15.7344C7.54688 15.9291 7.48914 16.1194 7.38098 16.2813C7.27281 16.4431 7.11908 16.5693 6.9392 16.6438C6.75933 16.7183 6.56141 16.7378 6.37046 16.6998C6.17951 16.6619 6.00411 16.5681 5.86644 16.4304C5.72877 16.2928 5.63502 16.1174 5.59704 15.9264C5.55906 15.7355 5.57855 15.5375 5.65306 15.3577C5.72756 15.1778 5.85373 15.0241 6.01561 14.9159C6.17749 14.8077 6.36781 14.75 6.5625 14.75C6.82357 14.75 7.07395 14.8537 7.25856 15.0383C7.44316 15.2229 7.54687 15.4733 7.54688 15.7344ZM16.0781 15.7344C16.0781 15.9291 16.0204 16.1194 15.9122 16.2813C15.8041 16.4431 15.6503 16.5693 15.4705 16.6438C15.2906 16.7183 15.0927 16.7378 14.9017 16.6998C14.7108 16.6619 14.5354 16.5681 14.3977 16.4304C14.26 16.2928 14.1663 16.1174 14.1283 15.9264C14.0903 15.7355 14.1098 15.5375 14.1843 15.3577C14.2588 15.1778 14.385 15.0241 14.5469 14.9159C14.7087 14.8077 14.8991 14.75 15.0938 14.75C15.3548 14.75 15.6052 14.8537 15.7898 15.0383C15.9744 15.2229 16.0781 15.4733 16.0781 15.7344ZM4.725 4.90625H16.9312L16.0781 9.61484C16.0511 9.76692 15.9713 9.90459 15.8527 10.0036C15.7342 10.1027 15.5845 10.1567 15.4301 10.1562H5.67656L4.725 4.90625Z" fill="black"/>
</svg>
