<svg width="11" height="11" viewBox="0 0 11 11" fill="none" xmlns="http://www.w3.org/2000/svg">
<path d="M5.36728 6.5545L1.50779 10.414C1.36339 10.5584 1.1796 10.6306 0.956436 10.6306C0.733268 10.6306 0.549483 10.5584 0.40508 10.414C0.260678 10.2696 0.188477 10.0858 0.188477 9.86263C0.188477 9.63947 0.260678 9.45568 0.40508 9.31128L4.26457 5.45179L0.40508 1.5923C0.260678 1.4479 0.188477 1.26411 0.188477 1.04095C0.188477 0.817779 0.260678 0.633994 0.40508 0.489591C0.549483 0.345188 0.733268 0.272987 0.956436 0.272987C1.1796 0.272987 1.36339 0.345188 1.50779 0.489591L5.36728 4.34908L9.22677 0.489591C9.37117 0.345188 9.55495 0.272987 9.77812 0.272987C10.0013 0.272987 10.1851 0.345188 10.3295 0.489591C10.4739 0.633994 10.5461 0.817779 10.5461 1.04095C10.5461 1.26411 10.4739 1.4479 10.3295 1.5923L6.46999 5.45179L10.3295 9.31128C10.4739 9.45568 10.5461 9.63947 10.5461 9.86263C10.5461 10.0858 10.4739 10.2696 10.3295 10.414C10.1851 10.5584 10.0013 10.6306 9.77812 10.6306C9.55495 10.6306 9.37117 10.5584 9.22677 10.414L5.36728 6.5545Z" fill="black"/>
</svg>
