<svg width="37" height="39" viewBox="0 0 37 39" fill="none" xmlns="http://www.w3.org/2000/svg">
<path d="M36.204 27.5963C36.2032 30.0694 35.3578 32.468 33.8079 34.3952C32.258 36.3223 30.0964 37.6623 27.6811 38.1935L26.5273 34.7322C27.5838 34.5582 28.5886 34.152 29.4692 33.5428C30.3498 32.9337 31.0843 32.1367 31.6197 31.2095H27.1621C26.2028 31.2095 25.2829 30.8284 24.6046 30.1502C23.9264 29.4719 23.5453 28.552 23.5453 27.5927V20.3592C23.5453 19.4 23.9264 18.4801 24.6046 17.8018C25.2829 17.1235 26.2028 16.7425 27.1621 16.7425H32.4751C32.0338 13.2467 30.332 10.0321 27.6891 7.70178C25.0461 5.37151 21.6437 4.08575 18.1202 4.08575C14.5966 4.08575 11.1942 5.37151 8.55126 7.70178C5.90833 10.0321 4.20656 13.2467 3.76526 16.7425H9.07827C10.0375 16.7425 10.9574 17.1235 11.6357 17.8018C12.314 18.4801 12.695 19.4 12.695 20.3592V27.5927C12.695 28.552 12.314 29.4719 11.6357 30.1502C10.9574 30.8284 10.0375 31.2095 9.07827 31.2095H3.65314C2.69391 31.2095 1.77397 30.8284 1.0957 30.1502C0.417427 29.4719 0.036377 28.552 0.036377 27.5927V18.5508C0.036377 8.56316 8.13249 0.467041 18.1202 0.467041C28.1079 0.467041 36.204 8.56316 36.204 18.5508V27.5963ZM32.5872 27.5927V20.3592H27.1621V27.5927H32.5872ZM3.65314 20.3592V27.5927H9.07827V20.3592H3.65314Z" fill="white"/>
</svg>
