<svg width="20" height="20" viewBox="0 0 20 20" fill="none" xmlns="http://www.w3.org/2000/svg">
<circle cx="9.54239" cy="9.79422" r="9.09538" stroke="#F11618" stroke-width="0.751427"/>
<path d="M9.8939 14.8803C9.82656 14.881 9.76022 14.864 9.70152 14.831C9.4894 14.7126 4.56641 11.9157 4.56641 8.36896C4.56641 7.74776 4.76186 7.14232 5.12508 6.63838C5.48829 6.13444 6.00086 5.75756 6.59018 5.56112C7.1795 5.36469 7.81568 5.35865 8.40862 5.54387C9.00155 5.72909 9.52118 6.09617 9.8939 6.59313C10.2666 6.09617 10.7862 5.72909 11.3792 5.54387C11.9721 5.35865 12.6083 5.36469 13.1976 5.56112C13.7869 5.75756 14.2995 6.13444 14.6627 6.63838C15.0259 7.14232 15.2214 7.74776 15.2214 8.36896C15.2214 9.87841 14.3483 11.4273 12.6267 12.9762C11.845 13.679 10.9938 14.3005 10.0863 14.831C10.0276 14.864 9.96124 14.881 9.8939 14.8803ZM7.52612 6.1985C6.95048 6.1985 6.39842 6.42717 5.99138 6.83421C5.58434 7.24125 5.35566 7.79332 5.35566 8.36896C5.35566 11.0919 9.00598 13.4843 9.8939 14.0269C10.7818 13.4843 14.4321 11.0919 14.4321 8.36896C14.4326 7.8672 14.2592 7.38078 13.9414 6.99246C13.6237 6.60414 13.1812 6.33791 12.6893 6.23906C12.1973 6.14021 11.6864 6.21485 11.2433 6.45028C10.8002 6.68571 10.4523 7.06738 10.2589 7.53037C10.2292 7.60275 10.1786 7.66466 10.1136 7.70822C10.0486 7.75179 9.97215 7.77505 9.8939 7.77505C9.81565 7.77505 9.73917 7.75179 9.67417 7.70822C9.60918 7.66466 9.5586 7.60275 9.52887 7.53037C9.36461 7.13489 9.08654 6.79713 8.72996 6.55999C8.37337 6.32286 7.95436 6.19703 7.52612 6.1985Z" fill="#F11618"/>
<path d="M15 8.81249C15 10.2469 14.1806 11.7187 12.5648 13.1906C11.8311 13.8584 11.0323 14.449 10.1806 14.9531C10.1252 14.9839 10.0631 15 10 15C9.93687 15 9.87477 14.9839 9.81944 14.9531C9.62037 14.8406 5 12.1828 5 8.81249C5 8.2222 5.18344 7.64687 5.52433 7.168C5.86522 6.68913 6.34628 6.33099 6.89937 6.14433C7.45246 5.95766 8.04953 5.95192 8.60602 6.12793C9.16251 6.30394 9.6502 6.65276 10 7.125C10.3498 6.65276 10.8375 6.30394 11.394 6.12793C11.9505 5.95192 12.5475 5.95766 13.1006 6.14433C13.6537 6.33099 14.1348 6.68913 14.4757 7.168C14.8166 7.64687 15 8.2222 15 8.81249Z" fill="#FF1616"/>
</svg>
