<svg width="20" height="20" viewBox="0 0 20 20" fill="none" xmlns="http://www.w3.org/2000/svg">
<path d="M7.25016 19.1667H12.7502C17.3335 19.1667 19.1668 17.3333 19.1668 12.75V7.25C19.1668 2.66666 17.3335 0.833328 12.7502 0.833328H7.25016C2.66683 0.833328 0.833496 2.66666 0.833496 7.25V12.75C0.833496 17.3333 2.66683 19.1667 7.25016 19.1667Z" stroke="#222222" stroke-width="1.5" stroke-linecap="round" stroke-linejoin="round"/>
<path d="M13.2726 15.9583V12.3833M13.2726 5.82917V4.04167M13.2726 5.82917C13.5856 5.82917 13.8955 5.89082 14.1846 6.01059C14.4738 6.13037 14.7365 6.30592 14.9578 6.52723C15.1792 6.74855 15.3547 7.01128 15.4745 7.30044C15.5943 7.5896 15.6559 7.89952 15.6559 8.21251C15.6559 8.52549 15.5943 8.83541 15.4745 9.12457C15.3547 9.41373 15.1792 9.67646 14.9578 9.89778C14.7365 10.1191 14.4738 10.2946 14.1846 10.4144C13.8955 10.5342 13.5856 10.5958 13.2726 10.5958C12.6405 10.5958 12.0343 10.3447 11.5873 9.89778C11.1403 9.45081 10.8892 8.8446 10.8892 8.21251C10.8892 7.58041 11.1403 6.9742 11.5873 6.52723C12.0343 6.08027 12.6405 5.82917 13.2726 5.82917ZM6.72757 15.9583V14.1708M6.72757 14.1708C7.04056 14.1708 7.35047 14.1092 7.63963 13.9894C7.92879 13.8696 8.19153 13.6941 8.41284 13.4728C8.63416 13.2515 8.80971 12.9887 8.92948 12.6996C9.04926 12.4104 9.1109 12.1005 9.1109 11.7875C9.1109 11.4745 9.04926 11.1646 8.92948 10.8754C8.80971 10.5863 8.63416 10.3235 8.41284 10.1022C8.19153 9.88092 7.92879 9.70537 7.63963 9.58559C7.35047 9.46582 7.04056 9.40417 6.72757 9.40417C6.09547 9.40417 5.48926 9.65527 5.0423 10.1022C4.59534 10.5492 4.34424 11.1554 4.34424 11.7875C4.34424 12.4196 4.59534 13.0258 5.0423 13.4728C5.48926 13.9197 6.09547 14.1708 6.72757 14.1708ZM6.72757 7.61667V4.04167" stroke="#222222" stroke-width="1.5" stroke-miterlimit="10" stroke-linecap="round" stroke-linejoin="round"/>
</svg>
