<svg width="24" height="24" viewBox="0 0 24 24" fill="none" xmlns="http://www.w3.org/2000/svg">
<path d="M8.06676 2.3421H9.11955C7.06661 8.49041 7.06661 15.1441 9.11955 21.2924H8.06676M15.4363 2.3421C17.4893 8.49041 17.4893 15.1441 15.4363 21.2924M2.80279 16.0284V14.9756C8.95111 17.0286 15.6048 17.0286 21.7531 14.9756V16.0284M2.80279 8.65886C8.95111 6.60591 15.6048 6.60591 21.7531 8.65886M22.8059 11.8172C22.8059 17.6317 18.0923 22.3452 12.2779 22.3452C6.46352 22.3452 1.75 17.6317 1.75 11.8172C1.75 6.00282 6.46352 1.28931 12.2779 1.28931C18.0923 1.28931 22.8059 6.00282 22.8059 11.8172Z" stroke="#206DD6" stroke-width="2" stroke-linecap="round" stroke-linejoin="round"/>
</svg>
