<svg width="19" height="18" viewBox="0 0 19 18" fill="none" xmlns="http://www.w3.org/2000/svg">
<g clip-path="url(#clip0_402_863)">
<path d="M17.9722 7.43118H17.2752V7.39654H9.4824V10.86H14.3746C13.6602 12.8775 11.7423 14.3235 9.4824 14.3235C6.61205 14.3235 4.2872 11.9986 4.2872 9.12828C4.2872 6.25793 6.61205 3.93307 9.4824 3.93307C10.8072 3.93307 12.0107 4.43095 12.9286 5.24919L15.379 2.79879C13.8334 1.35712 11.764 0.469604 9.4824 0.469604C4.69849 0.469604 0.82373 4.34436 0.82373 9.12828C0.82373 13.9122 4.69849 17.7869 9.4824 17.7869C14.2663 17.7869 18.1411 13.9079 18.1411 9.12828C18.1411 8.54814 18.0805 7.981 17.9722 7.43118Z" fill="#FFC107"/>
<path d="M1.82373 5.09766L4.6681 7.1844C5.43873 5.2795 7.30034 3.93307 9.48233 3.93307C10.8071 3.93307 12.0107 4.43095 12.9285 5.24919L15.3789 2.79879C13.8333 1.35712 11.7639 0.469604 9.48233 0.469604C6.1574 0.469604 3.27406 2.34854 1.82373 5.09766Z" fill="#FF3D00"/>
<path d="M9.48258 17.787C11.7208 17.787 13.7513 16.9298 15.2882 15.54L12.6084 13.2715C11.7382 13.9295 10.6602 14.3235 9.48258 14.3235C7.23133 14.3235 5.31776 12.8862 4.59909 10.8817L1.77637 13.0593C3.20938 15.8647 6.11869 17.787 9.48258 17.787Z" fill="#4CAF50"/>
<path d="M17.9722 7.43118H17.2752V7.39655H9.48242V10.86H14.3746C14.0326 11.8298 13.4091 12.6653 12.6039 13.2715L15.2837 15.54C15.0932 15.7132 18.1368 13.4576 18.1368 9.12828C18.1368 8.54815 18.0762 7.98101 17.9679 7.43118H17.9722Z" fill="#1976D2"/>
</g>
<defs>
<clipPath id="clip0_402_863">
<rect width="17.3173" height="17.3173" fill="white" transform="translate(0.82373 0.469604)"/>
</clipPath>
</defs>
</svg>
