<svg width="18" height="19" viewBox="0 0 18 19" fill="none" xmlns="http://www.w3.org/2000/svg">
<path d="M13.5188 10.4946V10.4946C13.5181 9.9261 13.3445 9.37129 13.0209 8.9039C12.6973 8.43651 12.2391 8.07869 11.7072 7.878C11.1754 7.67732 10.595 7.64328 10.0433 7.78041C9.53342 7.90715 9.07035 8.17456 8.70625 8.55097V8.08838C8.70625 7.98395 8.66477 7.8838 8.59092 7.80996C8.51708 7.73611 8.41693 7.69463 8.3125 7.69463C8.20807 7.69463 8.10792 7.73611 8.03408 7.80996C7.96023 7.8838 7.91875 7.98395 7.91875 8.08838V13.5884C7.91875 13.6928 7.96023 13.793 8.03408 13.8668C8.10792 13.9406 8.20807 13.9821 8.3125 13.9821C8.41693 13.9821 8.51708 13.9406 8.59092 13.8668C8.66477 13.793 8.70625 13.6928 8.70625 13.5884V10.4946C8.70625 9.96088 8.91828 9.44899 9.2957 9.07158C9.67311 8.69416 10.185 8.48213 10.7188 8.48213C11.2525 8.48213 11.7644 8.69416 12.1418 9.07158C12.5192 9.44899 12.7312 9.96088 12.7312 10.4946V13.5884C12.7312 13.6928 12.7727 13.793 12.8466 13.8668C12.9204 13.9406 13.0206 13.9821 13.125 13.9821C13.2294 13.9821 13.3296 13.9406 13.4034 13.8668C13.4773 13.793 13.5188 13.6928 13.5188 13.5884V10.4946ZM16.5625 0.819629H1.4375C1.15073 0.819629 0.875715 0.933546 0.672941 1.13632C0.470167 1.33909 0.35625 1.61411 0.35625 1.90088V17.0259C0.35625 17.3126 0.470167 17.5877 0.672941 17.7904C0.875714 17.9932 1.15073 18.1071 1.4375 18.1071H16.5625C16.8493 18.1071 17.1243 17.9932 17.3271 17.7904C17.5298 17.5877 17.6437 17.3126 17.6437 17.0259V1.90088C17.6437 1.61411 17.5298 1.33909 17.3271 1.13632C17.1243 0.933546 16.8493 0.819629 16.5625 0.819629ZM16.8563 17.0259C16.8563 17.1038 16.8253 17.1785 16.7702 17.2336C16.7151 17.2887 16.6404 17.3196 16.5625 17.3196H1.4375C1.35959 17.3196 1.28488 17.2887 1.22979 17.2336C1.1747 17.1785 1.14375 17.1038 1.14375 17.0259V1.90088C1.14375 1.82297 1.1747 1.74826 1.22979 1.69317C1.28488 1.63808 1.35959 1.60713 1.4375 1.60713H16.5625C16.6404 1.60713 16.7151 1.63808 16.7702 1.69317C16.8253 1.74826 16.8563 1.82297 16.8563 1.90088V17.0259ZM5.95625 13.5884V8.08838C5.95625 7.98395 5.91477 7.8838 5.84092 7.80996C5.76708 7.73611 5.66693 7.69463 5.5625 7.69463C5.45807 7.69463 5.35792 7.73611 5.28408 7.80996C5.21023 7.8838 5.16875 7.98395 5.16875 8.08838V13.5884C5.16875 13.6928 5.21023 13.793 5.28408 13.8668C5.35792 13.9406 5.45807 13.9821 5.5625 13.9821C5.66693 13.9821 5.76708 13.9406 5.84092 13.8668C5.91477 13.793 5.95625 13.6928 5.95625 13.5884ZM6.17571 6.09186C6.25675 5.97058 6.3 5.82799 6.3 5.68213C6.3 5.48653 6.2223 5.29895 6.08399 5.16064C5.94568 5.02233 5.7581 4.94463 5.5625 4.94463C5.41664 4.94463 5.27405 4.98788 5.15277 5.06892C5.03149 5.14996 4.93696 5.26514 4.88114 5.3999C4.82532 5.53466 4.81071 5.68295 4.83917 5.82601C4.86763 5.96907 4.93787 6.10048 5.04101 6.20362C5.14415 6.30676 5.27556 6.377 5.41862 6.40546C5.56168 6.43391 5.70997 6.41931 5.84473 6.36349C5.97949 6.30767 6.09467 6.21314 6.17571 6.09186Z" fill="black" stroke="black" stroke-width="0.1"/>
</svg>
