<svg width="14" height="16" viewBox="0 0 14 16" fill="none" xmlns="http://www.w3.org/2000/svg">
<path d="M11.3412 11.5823L7.96238 14.9921C7.82923 15.1265 7.67114 15.2331 7.49713 15.3059C7.32312 15.3786 7.13661 15.416 6.94825 15.416C6.7599 15.416 6.57338 15.3786 6.39938 15.3059C6.22537 15.2331 6.06727 15.1265 5.93413 14.9921L2.55531 11.5823C1.97835 11.0003 1.52068 10.3093 1.20841 9.54887C0.896141 8.78841 0.735396 7.97335 0.735352 7.15022C0.735307 6.32709 0.895965 5.51201 1.20815 4.75152C1.52034 3.99102 1.97794 3.30002 2.55483 2.71794C3.13172 2.13587 3.8166 1.67413 4.57037 1.35909C5.32413 1.04405 6.13203 0.881881 6.94792 0.881836C7.7638 0.881791 8.57171 1.04387 9.32551 1.35883C10.0793 1.67379 10.7642 2.13545 11.3412 2.71746C11.9182 3.29951 12.3759 3.99052 12.6882 4.75104C13.0005 5.51156 13.1612 6.32668 13.1612 7.14988C13.1612 7.97307 13.0005 8.7882 12.6882 9.54871C12.3759 10.3092 11.9182 11.0002 11.3412 11.5823ZM10.328 3.74059V3.73962C9.43166 2.83529 8.21592 2.32725 6.94825 2.32725C5.68059 2.32725 4.46485 2.83529 3.56848 3.73962C2.6721 4.64395 2.16853 5.87048 2.16853 7.14939C2.16853 8.42831 2.6721 9.65484 3.56848 10.5592L6.94825 13.968L10.328 10.5601C10.7719 10.1124 11.1241 9.58082 11.3643 8.99576C11.6046 8.41071 11.7282 7.78363 11.7282 7.15036C11.7282 6.51708 11.6046 5.89001 11.3643 5.30495C11.1241 4.7199 10.7719 4.18832 10.328 3.74059ZM6.94825 9.07896C6.69368 9.08477 6.44052 9.03921 6.20365 8.94495C5.96677 8.85069 5.75094 8.70964 5.56884 8.53008C5.38674 8.35051 5.24203 8.13605 5.14321 7.89929C5.0444 7.66253 4.99346 7.40823 4.9934 7.15133C4.99333 6.89444 5.04414 6.64012 5.14284 6.4033C5.24154 6.16649 5.38614 5.95196 5.56816 5.7723C5.75017 5.59264 5.96593 5.45148 6.20276 5.3571C6.43959 5.26273 6.69272 5.21704 6.9473 5.22272C7.44677 5.23386 7.92207 5.44183 8.27146 5.80211C8.62085 6.16239 8.81655 6.64634 8.81667 7.15037C8.8168 7.6544 8.62134 8.13845 8.27213 8.4989C7.92292 8.85936 7.44772 9.06757 6.94825 9.07896Z" fill="#010B1B"/>
</svg>
