<svg width="10" height="12" viewBox="0 0 10 12" fill="none" xmlns="http://www.w3.org/2000/svg">
<path d="M8.51091 8.43992L5.99456 10.957C5.89541 11.0562 5.77767 11.1349 5.64808 11.1886C5.51849 11.2423 5.37958 11.27 5.23931 11.27C5.09903 11.27 4.96012 11.2423 4.83053 11.1886C4.70094 11.1349 4.5832 11.0562 4.48405 10.957L1.9677 8.43992C1.53802 8.01028 1.19717 7.50023 0.96461 6.93886C0.732051 6.3775 0.612338 5.77583 0.612305 5.16821C0.612272 4.56058 0.73192 3.9589 0.964418 3.39751C1.19692 2.83613 1.53771 2.32603 1.96734 1.89635C2.39698 1.46667 2.90704 1.12582 3.4684 0.89326C4.02976 0.660701 4.63143 0.540988 5.23905 0.540955C5.84668 0.540922 6.44836 0.66057 7.00975 0.893068C7.57114 1.12557 8.08123 1.46636 8.51091 1.89599C8.94063 2.32565 9.2815 2.83575 9.51406 3.39716C9.74663 3.95857 9.86633 4.56028 9.86633 5.16796C9.86633 5.77563 9.74663 6.37735 9.51406 6.93875C9.2815 7.50016 8.94063 8.01026 8.51091 8.43992ZM7.75636 2.65125V2.65054C7.0888 1.98298 6.18338 1.60794 5.23931 1.60794C4.29523 1.60794 3.38981 1.98298 2.72225 2.65054C2.05468 3.31811 1.67965 4.22352 1.67965 5.1676C1.67965 6.11168 2.05468 7.01709 2.72225 7.68466L5.23931 10.201L7.75636 7.68537C8.08696 7.35486 8.34922 6.96245 8.52814 6.53057C8.70706 6.09869 8.79916 5.63579 8.79916 5.16831C8.79916 4.70083 8.70706 4.23793 8.52814 3.80605C8.34922 3.37417 8.08696 2.98177 7.75636 2.65125ZM5.23931 6.59199C5.04972 6.59627 4.86118 6.56264 4.68477 6.49306C4.50835 6.42348 4.34762 6.31936 4.212 6.18681C4.07638 6.05425 3.96861 5.89594 3.89502 5.72116C3.82143 5.54639 3.78349 5.35867 3.78344 5.16903C3.7834 4.97939 3.82124 4.79166 3.89474 4.61684C3.96825 4.44203 4.07594 4.28366 4.21149 4.15104C4.34704 4.01842 4.50773 3.91422 4.6841 3.84455C4.86048 3.77488 5.049 3.74116 5.23859 3.74535C5.61057 3.75357 5.96455 3.9071 6.22475 4.17305C6.48495 4.439 6.6307 4.79625 6.63079 5.16832C6.63089 5.54039 6.48532 5.89771 6.22525 6.16379C5.96518 6.42988 5.61128 6.58357 5.23931 6.59199Z" fill="#1B1B1B"/>
</svg>
