<svg width="10" height="12" viewBox="0 0 10 12" fill="none" xmlns="http://www.w3.org/2000/svg">
<path d="M8.59811 8.47464L6.10967 10.9519C6.01161 11.0495 5.89518 11.127 5.76703 11.1799C5.63887 11.2327 5.50151 11.2599 5.36279 11.2599C5.22407 11.2599 5.08671 11.2327 4.95855 11.1799C4.8304 11.127 4.71397 11.0495 4.61591 10.9519L2.12747 8.47464C1.70256 8.0518 1.36549 7.54981 1.13551 6.99733C0.905528 6.44485 0.787142 5.8527 0.787109 5.25468C0.787077 4.65667 0.905398 4.0645 1.13532 3.51199C1.36524 2.95949 1.70225 2.45746 2.12712 2.03458C2.55199 1.61169 3.05639 1.27624 3.61152 1.04736C4.16666 0.818475 4.76166 0.700655 5.36254 0.700623C5.96343 0.70059 6.55844 0.818346 7.1136 1.04717C7.66876 1.27599 8.1732 1.61139 8.59811 2.03423C9.02306 2.45709 9.36015 2.95912 9.59014 3.51165C9.82012 4.06417 9.9385 4.65638 9.9385 5.25443C9.9385 5.85249 9.82012 6.44469 9.59014 6.99722C9.36015 7.54975 9.02306 8.05178 8.59811 8.47464V8.47464ZM7.85193 2.77754V2.77684C7.19177 2.11983 6.2964 1.75073 5.36279 1.75073C4.42918 1.75073 3.53381 2.11983 2.87365 2.77684C2.21349 3.43385 1.84261 4.32494 1.84261 5.25408C1.84261 6.18323 2.21349 7.07432 2.87365 7.73133L5.36279 10.2079L7.85193 7.73203C8.17887 7.40674 8.43821 7.02055 8.61515 6.5955C8.79209 6.17045 8.88316 5.71487 8.88316 5.25478C8.88316 4.7947 8.79209 4.33912 8.61515 3.91407C8.43821 3.48902 8.17887 3.10283 7.85193 2.77754V2.77754ZM5.36279 6.65594C5.1753 6.66016 4.98886 6.62706 4.8144 6.55858C4.63995 6.4901 4.48099 6.38763 4.34688 6.25717C4.21277 6.12671 4.10619 5.9709 4.03341 5.79889C3.96064 5.62688 3.92312 5.44213 3.92308 5.25549C3.92303 5.06885 3.96045 4.88409 4.03314 4.71204C4.10583 4.53999 4.21233 4.38413 4.34638 4.25361C4.48043 4.12308 4.63933 4.02053 4.81375 3.95196C4.98817 3.8834 5.1746 3.8502 5.36209 3.85433C5.72994 3.86243 6.07999 4.01352 6.33731 4.27526C6.59462 4.53701 6.73875 4.88861 6.73885 5.25479C6.73894 5.62098 6.59499 5.97265 6.3378 6.23452C6.08062 6.49639 5.73064 6.64766 5.36279 6.65594V6.65594Z" fill="#010B1B"/>
</svg>
