<svg width="12" height="12" viewBox="0 0 12 12" fill="none" xmlns="http://www.w3.org/2000/svg">
<path d="M7.93958 8.49375C7.83264 8.36736 7.77917 8.22386 7.77917 8.06325C7.77917 7.90303 7.83264 7.76944 7.93958 7.6625L9.01875 6.58333H4.83333C4.66806 6.58333 4.52961 6.52733 4.418 6.41533C4.306 6.30372 4.25 6.16528 4.25 6C4.25 5.83472 4.306 5.69608 4.418 5.58408C4.52961 5.47247 4.66806 5.41667 4.83333 5.41667H9.01875L7.93958 4.3375C7.82292 4.22083 7.76458 4.08239 7.76458 3.92217C7.76458 3.76156 7.82292 3.62292 7.93958 3.50625C8.04653 3.38958 8.18031 3.33125 8.34092 3.33125C8.50114 3.33125 8.63472 3.38472 8.74167 3.49167L10.8417 5.59167C10.9 5.65 10.9414 5.71319 10.9659 5.78125C10.99 5.84931 11.0021 5.92222 11.0021 6C11.0021 6.07778 10.99 6.15069 10.9659 6.21875C10.9414 6.28681 10.9 6.35 10.8417 6.40833L8.74167 8.50833C8.61528 8.63472 8.47683 8.69053 8.32633 8.67575C8.17544 8.66136 8.04653 8.60069 7.93958 8.49375ZM1.91667 11.25C1.59583 11.25 1.32108 11.1359 1.09242 10.9076C0.864139 10.6789 0.75 10.4042 0.75 10.0833V1.91667C0.75 1.59583 0.864139 1.32108 1.09242 1.09242C1.32108 0.864139 1.59583 0.75 1.91667 0.75H5.41667C5.58194 0.75 5.72058 0.805806 5.83258 0.917417C5.94419 1.02942 6 1.16806 6 1.33333C6 1.49861 5.94419 1.63706 5.83258 1.74867C5.72058 1.86067 5.58194 1.91667 5.41667 1.91667H1.91667V10.0833H5.41667C5.58194 10.0833 5.72058 10.1393 5.83258 10.2513C5.94419 10.3629 6 10.5014 6 10.6667C6 10.8319 5.94419 10.9704 5.83258 11.082C5.72058 11.194 5.58194 11.25 5.41667 11.25H1.91667Z" fill="black"/>
</svg>
