<svg width="28" height="28" viewBox="0 0 28 28" fill="none" xmlns="http://www.w3.org/2000/svg">
<circle cx="13.8862" cy="13.9604" r="13.3339" fill="white" stroke="#898989" stroke-width="0.355572"/>
<path d="M12.0389 9.12931C12.101 9.06689 12.1747 9.01737 12.2558 8.98358C12.3369 8.9498 12.4239 8.9324 12.5118 8.9324C12.5996 8.9324 12.6866 8.9498 12.7677 8.98358C12.8489 9.01737 12.9225 9.06689 12.9846 9.12931L17.4243 13.585C17.4739 13.6346 17.5131 13.6935 17.54 13.7583C17.5668 13.8232 17.5806 13.8927 17.5806 13.963C17.5806 14.0332 17.5668 14.1027 17.54 14.1676C17.5131 14.2324 17.4739 14.2914 17.4243 14.341L12.9846 18.7966C12.7228 19.0594 12.3007 19.0594 12.0389 18.7966C11.7771 18.5339 11.7771 18.1103 12.0389 17.8476L15.907 13.9603L12.0336 10.073C11.7771 9.81562 11.7771 9.38667 12.0389 9.12931Z" fill="#666666"/>
</svg>
