<svg width="22" height="22" viewBox="0 0 22 22" fill="none" xmlns="http://www.w3.org/2000/svg">
<path d="M9.90039 6.6V12.1H9.96639L12.6944 14.817L14.2454 13.266L12.1004 11.121V6.6H9.90039Z" fill="black"/>
<path d="M11.0008 1.1C9.28173 1.10552 7.59374 1.55857 6.10295 2.41456C4.61216 3.27056 3.36996 4.49998 2.4986 5.98184C1.62725 7.46371 1.15677 9.14692 1.13348 10.8658C1.11019 12.5847 1.53489 14.2801 2.36578 15.785L0.550781 17.6H6.60078V11.55L3.98278 14.168C3.29889 12.653 3.12363 10.9573 3.48318 9.33442C3.84274 7.71154 4.71781 6.24858 5.97761 5.16418C7.23742 4.07979 8.81431 3.43218 10.4726 3.31814C12.1309 3.2041 13.7816 3.62976 15.178 4.5315C16.5744 5.43324 17.6415 6.76264 18.2198 8.32103C18.7981 9.87942 18.8566 11.5831 18.3866 13.1775C17.9165 14.7719 16.9431 16.1713 15.6119 17.1667C14.2806 18.1621 12.663 18.7 11.0008 18.7V20.9C13.6264 20.9 16.1445 19.857 18.0011 18.0004C19.8577 16.1437 20.9008 13.6256 20.9008 11C20.9008 8.37435 19.8577 5.85625 18.0011 3.99964C16.1445 2.14303 13.6264 1.1 11.0008 1.1Z" fill="black"/>
</svg>
