<svg width="28" height="28" viewBox="0 0 28 28" fill="none" xmlns="http://www.w3.org/2000/svg">
<circle cx="13.5117" cy="13.805" r="13.3339" fill="white" stroke="#898989" stroke-width="0.355572"/>
<rect width="11.5815" height="12.8683" transform="matrix(1 0 0 -1 7.72095 20.2391)" fill="white"/>
<path d="M15.3593 18.636C15.2972 18.6984 15.2235 18.7479 15.1424 18.7817C15.0613 18.8155 14.9743 18.8329 14.8864 18.8329C14.7986 18.8329 14.7116 18.8155 14.6305 18.7817C14.5493 18.7479 14.4756 18.6984 14.4136 18.636L9.97387 14.1803C9.92434 14.1307 9.88505 14.0718 9.85824 14.0069C9.83143 13.942 9.81763 13.8725 9.81763 13.8023C9.81763 13.7321 9.83143 13.6625 9.85824 13.5977C9.88505 13.5328 9.92434 13.4739 9.97387 13.4243L14.4136 8.96863C14.6754 8.7059 15.0975 8.7059 15.3593 8.96863C15.621 9.23136 15.621 9.65494 15.3593 9.91767L11.4912 13.805L15.3646 17.6923C15.621 17.9496 15.621 18.3786 15.3593 18.636Z" fill="#666666"/>
</svg>
