<svg width="28" height="20" viewBox="0 0 28 20" fill="none" xmlns="http://www.w3.org/2000/svg">
<path d="M6.79494 8.33869C6.50287 8.33869 6.22258 8.38224 5.9436 8.42194C6.03398 8.12482 6.12697 7.82257 6.27628 7.55106C6.42559 7.1566 6.65873 6.81465 6.89055 6.47014C7.0844 6.09746 7.42624 5.84516 7.67771 5.52626C7.94097 5.21633 8.29985 5.01014 8.58406 4.75271C8.86304 4.48376 9.22846 4.34929 9.51923 4.15975C9.82309 3.98941 10.0877 3.80115 10.3706 3.7115L11.0765 3.42718L11.6973 3.17488L11.0621 0.692871L10.2802 0.877292C10.03 0.938766 9.72486 1.01049 9.37777 1.09629C9.02283 1.16033 8.64431 1.33579 8.22257 1.49587C7.80607 1.67773 7.32408 1.80068 6.87615 2.09268C6.42559 2.37188 5.90562 2.60497 5.44721 2.97893C5.0032 3.36443 4.46751 3.69869 4.07197 4.1892C3.63975 4.6477 3.21277 5.12924 2.8814 5.67738C2.49765 6.19991 2.23701 6.77367 1.96196 7.34102C1.71311 7.90838 1.51271 8.48854 1.34899 9.05205C1.03858 10.1816 0.89975 11.2549 0.84605 12.1731C0.801518 13.0927 0.827713 13.8573 0.882723 14.4105C0.902369 14.6718 0.939042 14.9254 0.965237 15.1008L0.997981 15.316L1.03203 15.3083C1.26499 16.3724 1.80126 17.3502 2.5788 18.1287C3.35635 18.9071 4.3434 19.4545 5.42578 19.7073C6.50816 19.9602 7.64163 19.9082 8.69507 19.5575C9.74852 19.2067 10.6789 18.5715 11.3786 17.7254C12.0782 16.8792 12.5186 15.8566 12.6488 14.7759C12.7789 13.6952 12.5935 12.6006 12.114 11.6186C11.6345 10.6367 10.8805 9.80749 9.9392 9.22706C8.9979 8.64662 7.90778 8.33862 6.79494 8.33869ZM21.2022 8.33869C20.9101 8.33869 20.6298 8.38224 20.3509 8.42194C20.4412 8.12482 20.5342 7.82257 20.6835 7.55106C20.8329 7.1566 21.066 6.81465 21.2978 6.47014C21.4917 6.09746 21.8335 5.84516 22.085 5.52626C22.3482 5.21633 22.7071 5.01014 22.9913 4.75271C23.2703 4.48376 23.6357 4.34929 23.9265 4.15975C24.2304 3.98941 24.4949 3.80115 24.7778 3.7115L25.4838 3.42718L26.1046 3.17488L25.4694 0.692871L24.6875 0.877292C24.4373 0.938766 24.1321 1.01049 23.785 1.09629C23.4301 1.16033 23.0516 1.33579 22.6298 1.49587C22.2146 1.67902 21.7313 1.80068 21.2834 2.09396C20.8329 2.37316 20.3129 2.60625 19.8545 2.98021C19.4105 3.36571 18.8748 3.69997 18.4792 4.1892C18.047 4.6477 17.62 5.12924 17.2887 5.67738C16.9049 6.19991 16.6443 6.77367 16.3692 7.34102C16.1204 7.90838 15.92 8.48854 15.7563 9.05205C15.4459 10.1816 15.307 11.2549 15.2533 12.1731C15.2088 13.0927 15.235 13.8573 15.29 14.4105C15.3096 14.6718 15.3463 14.9254 15.3725 15.1008L15.4052 15.316L15.4393 15.3083C15.6723 16.3724 16.2085 17.3502 16.9861 18.1287C17.7636 18.9071 18.7507 19.4545 19.833 19.7073C20.9154 19.9602 22.0489 19.9082 23.1023 19.5575C24.1558 19.2067 25.0862 18.5715 25.7858 17.7254C26.4855 16.8792 26.9259 15.8566 27.056 14.7759C27.1862 13.6952 27.0008 12.6006 26.5213 11.6186C26.0418 10.6367 25.2878 9.80749 24.3465 9.22706C23.4052 8.64662 22.315 8.33862 21.2022 8.33869Z" fill="#010B1B"/>
</svg>
