<svg width="229" height="47" viewBox="0 0 229 47" fill="none" xmlns="http://www.w3.org/2000/svg">
<path d="M19.9644 9.43536C20.8885 6.59142 24.9119 6.59142 25.836 9.43536L27.3486 14.0907C27.7618 15.3626 28.947 16.2237 30.2843 16.2237H35.1793C38.1696 16.2237 39.4129 20.0502 36.9937 21.8078L33.0336 24.685C31.9517 25.471 31.499 26.8643 31.9122 28.1362L33.4249 32.7916C34.3489 35.6355 31.0939 38.0004 28.6747 36.2427L24.7146 33.3656C23.6327 32.5795 22.1677 32.5795 21.0858 33.3656L17.1257 36.2427C14.7065 38.0004 11.4515 35.6355 12.3756 32.7916L13.8882 28.1362C14.3014 26.8643 13.8487 25.471 12.7668 24.685L8.80673 21.8078C6.38753 20.0502 7.63084 16.2237 10.6211 16.2237H15.5161C16.8534 16.2237 18.0386 15.3626 18.4518 14.0907L19.9644 9.43536Z" fill="url(#paint0_linear_279_382)"/>
<path d="M65.7672 9.43542C66.6912 6.59148 70.7146 6.59148 71.6387 9.43542L73.1513 14.0908C73.5646 15.3626 74.7498 16.2237 76.0871 16.2237H80.982C83.9723 16.2237 85.2156 20.0502 82.7964 21.8079L78.8363 24.6851C77.7544 25.4711 77.3017 26.8644 77.715 28.1362L79.2276 32.7916C80.1516 35.6355 76.8966 38.0005 74.4774 36.2428L70.5173 33.3656C69.4354 32.5796 67.9704 32.5796 66.8885 33.3656L62.9284 36.2428C60.5093 38.0005 57.2542 35.6356 58.1783 32.7916L59.6909 28.1362C60.1042 26.8644 59.6515 25.4711 58.5696 24.6851L54.6095 21.8079C52.1903 20.0502 53.4336 16.2237 56.4239 16.2237H61.3188C62.6561 16.2237 63.8413 15.3626 64.2546 14.0908L65.7672 9.43542Z" fill="#E3E3E3"/>
<path d="M111.564 9.43542C112.488 6.59148 116.512 6.59148 117.436 9.43542L118.948 14.0908C119.361 15.3626 120.547 16.2237 121.884 16.2237H126.779C129.769 16.2237 131.012 20.0502 128.593 21.8079L124.633 24.6851C123.551 25.4711 123.099 26.8644 123.512 28.1362L125.024 32.7916C125.949 35.6355 122.694 38.0005 120.274 36.2428L116.314 33.3656C115.232 32.5796 113.767 32.5796 112.685 33.3656L108.725 36.2428C106.306 38.0005 103.051 35.6356 103.975 32.7916L105.488 28.1362C105.901 26.8644 105.448 25.4711 104.366 24.6851L100.406 21.8079C97.9871 20.0502 99.2304 16.2237 102.221 16.2237H107.116C108.453 16.2237 109.638 15.3626 110.051 14.0908L111.564 9.43542Z" fill="#E3E3E3"/>
<path d="M157.364 9.43542C158.288 6.59148 162.311 6.59148 163.235 9.43542L164.748 14.0908C165.161 15.3626 166.346 16.2237 167.684 16.2237H172.579C175.569 16.2237 176.812 20.0502 174.393 21.8079L170.433 24.6851C169.351 25.4711 168.898 26.8644 169.312 28.1362L170.824 32.7916C171.748 35.6355 168.493 38.0005 166.074 36.2428L162.114 33.3656C161.032 32.5796 159.567 32.5796 158.485 33.3656L154.525 36.2428C152.106 38.0005 148.851 35.6356 149.775 32.7916L151.288 28.1362C151.701 26.8644 151.248 25.4711 150.166 24.6851L146.206 21.8079C143.787 20.0502 145.03 16.2237 148.021 16.2237H152.915C154.253 16.2237 155.438 15.3626 155.851 14.0908L157.364 9.43542Z" fill="#E3E3E3"/>
<mask id="mask0_279_382" style="mask-type:alpha" maskUnits="userSpaceOnUse" x="190" y="7" width="32" height="30">
<path d="M203.164 9.43542C204.088 6.59148 208.112 6.59148 209.036 9.43542L210.548 14.0908C210.962 15.3626 212.147 16.2237 213.484 16.2237H218.379C221.369 16.2237 222.613 20.0502 220.193 21.8079L216.233 24.6851C215.151 25.4711 214.699 26.8644 215.112 28.1362L216.625 32.7916C217.549 35.6355 214.294 38.0005 211.874 36.2428L207.914 33.3656C206.832 32.5796 205.367 32.5796 204.286 33.3656L200.325 36.2428C197.906 38.0005 194.651 35.6356 195.575 32.7916L197.088 28.1362C197.501 26.8644 197.048 25.4711 195.967 24.6851L192.006 21.8079C189.587 20.0502 190.831 16.2237 193.821 16.2237H198.716C200.053 16.2237 201.238 15.3626 201.652 14.0908L203.164 9.43542Z" fill="#E3E3E3"/>
</mask>
<g mask="url(#mask0_279_382)">
<rect x="187.363" y="4.16711" width="36.6796" height="35.6883" fill="#E3E3E3"/>
</g>
<defs>
<linearGradient id="paint0_linear_279_382" x1="22.9002" y1="0.400024" x2="23" y2="84" gradientUnits="userSpaceOnUse">
<stop stop-color="#F8B200"/>
<stop offset="1" stop-color="#FCC500" stop-opacity="0"/>
</linearGradient>
</defs>
</svg>
