<svg width="15" height="12" viewBox="0 0 15 12" fill="none" xmlns="http://www.w3.org/2000/svg">
<path d="M7.50049 12C7.40984 12.0009 7.32054 11.9793 7.24151 11.9375C6.95596 11.7875 0.328613 8.24375 0.328613 3.75C0.328613 2.96294 0.591731 2.19583 1.0807 1.55734C1.56966 0.91884 2.25968 0.441328 3.05302 0.192438C3.84636 -0.0564523 4.70279 -0.0641013 5.501 0.170574C6.29921 0.40525 6.99874 0.870352 7.50049 1.5C8.00224 0.870352 8.70177 0.40525 9.49998 0.170574C10.2982 -0.0641013 11.1546 -0.0564523 11.948 0.192438C12.7413 0.441328 13.4313 0.91884 13.9203 1.55734C14.4093 2.19583 14.6724 2.96294 14.6724 3.75C14.6724 5.6625 13.497 7.625 11.1794 9.5875C10.127 10.4779 8.98115 11.2653 7.75948 11.9375C7.68045 11.9793 7.59114 12.0009 7.50049 12ZM4.31299 1C3.53806 1 2.79487 1.28973 2.24691 1.80546C1.69895 2.32118 1.39111 3.02065 1.39111 3.75C1.39111 7.2 6.30518 10.2312 7.50049 10.9187C8.6958 10.2312 13.6099 7.2 13.6099 3.75C13.6105 3.11427 13.3771 2.49797 12.9493 2.00596C12.5215 1.51395 11.9259 1.17663 11.2636 1.05139C10.6014 0.926144 9.91352 1.02071 9.31702 1.31901C8.72052 1.6173 8.25226 2.10089 7.9919 2.6875C7.95187 2.7792 7.88379 2.85764 7.79629 2.91284C7.70879 2.96804 7.60583 2.99752 7.50049 2.99752C7.39515 2.99752 7.29219 2.96804 7.2047 2.91284C7.1172 2.85764 7.04911 2.7792 7.00908 2.6875C6.78797 2.18642 6.41363 1.75848 5.93359 1.45802C5.45355 1.15756 4.88948 0.998142 4.31299 1Z" fill="#5F5F5F"/>
</svg>
