<svg width="22" height="20" viewBox="0 0 22 20" fill="none" xmlns="http://www.w3.org/2000/svg">
<path d="M11 19C10.872 19.0013 10.7459 18.969 10.6344 18.9062C10.2312 18.6812 0.875 13.3656 0.875 6.625C0.875 5.44441 1.24646 4.29375 1.93676 3.336C2.62707 2.37826 3.60121 1.66199 4.72122 1.28866C5.84122 0.915322 7.0503 0.903848 8.17719 1.25586C9.30408 1.60787 10.2916 2.30553 11 3.25C11.7084 2.30553 12.6959 1.60787 13.8228 1.25586C14.9497 0.903848 16.1588 0.915322 17.2788 1.28866C18.3988 1.66199 19.3729 2.37826 20.0632 3.336C20.7535 4.29375 21.125 5.44441 21.125 6.625C21.125 9.49375 19.4656 12.4375 16.1937 15.3812C14.708 16.7169 13.0903 17.898 11.3656 18.9062C11.2541 18.969 11.128 19.0013 11 19ZM6.5 2.5C5.40598 2.5 4.35677 2.9346 3.58318 3.70818C2.8096 4.48177 2.375 5.53098 2.375 6.625C2.375 11.8 9.3125 16.3469 11 17.3781C12.6875 16.3469 19.625 11.8 19.625 6.625C19.6259 5.6714 19.2963 4.74695 18.6924 4.00894C18.0885 3.27093 17.2476 2.76495 16.3127 2.57708C15.3777 2.38922 14.4066 2.53107 13.5645 2.97851C12.7224 3.42595 12.0613 4.15134 11.6937 5.03125C11.6372 5.16881 11.5411 5.28646 11.4176 5.36926C11.2941 5.45206 11.1487 5.49627 11 5.49627C10.8513 5.49627 10.7059 5.45206 10.5824 5.36926C10.4589 5.28646 10.3628 5.16881 10.3062 5.03125C9.99408 4.27962 9.4656 3.63772 8.7879 3.18703C8.11021 2.73635 7.31387 2.49721 6.5 2.5Z" fill="black" stroke="black" stroke-width="0.8"/>
</svg>
