<svg width="11" height="11" viewBox="0 0 11 11" fill="none" xmlns="http://www.w3.org/2000/svg">
<path d="M7.61035 8.36636C6.70922 9.06631 5.57541 9.3963 4.43972 9.28918C3.30402 9.18205 2.2518 8.64586 1.49724 7.78975C0.742683 6.93363 0.342507 5.82195 0.378171 4.68098C0.413834 3.54001 0.882656 2.45553 1.68921 1.64828C2.4959 0.841168 3.57963 0.372021 4.7198 0.336333C5.85998 0.300645 6.97089 0.701098 7.82641 1.45618C8.68193 2.21126 9.21775 3.26421 9.3248 4.4007C9.43185 5.53719 9.10209 6.67178 8.40263 7.57354L10.6748 9.84731C10.7486 9.91587 10.8026 10.0031 10.831 10.0998C10.8594 10.1964 10.8612 10.299 10.8363 10.3966C10.8113 10.4942 10.7605 10.5833 10.6892 10.6545C10.6179 10.7256 10.5288 10.7762 10.4312 10.8009C10.3337 10.8259 10.2313 10.8242 10.1348 10.7959C10.0382 10.7676 9.95111 10.7138 9.88254 10.6401L7.61035 8.36636ZM8.22325 4.82108C8.22989 4.37501 8.14783 3.93206 7.98184 3.51802C7.81585 3.10397 7.56925 2.72708 7.25637 2.40928C6.94349 2.09148 6.57058 1.83912 6.15934 1.66686C5.7481 1.4946 5.30674 1.40589 4.86093 1.40589C4.41511 1.40589 3.97375 1.4946 3.56251 1.66686C3.15127 1.83912 2.77837 2.09148 2.46549 2.40928C2.15261 2.72708 1.906 3.10397 1.74001 3.51802C1.57402 3.93206 1.49196 4.37501 1.49861 4.82108C1.51178 5.70475 1.87181 6.54777 2.50094 7.16802C3.13006 7.78826 3.97777 8.13594 4.86093 8.13594C5.74409 8.13594 6.59179 7.78826 7.22092 7.16802C7.85004 6.54777 8.21008 5.70475 8.22325 4.82108V4.82108Z" fill="#010B1B"/>
</svg>
