<svg width="78" height="16" viewBox="0 0 78 16" fill="none" xmlns="http://www.w3.org/2000/svg">
<path d="M68.4073 3.05698C68.7149 2.11051 70.0539 2.11051 70.3614 3.05698L70.8798 4.6523C71.0173 5.07558 71.4117 5.36215 71.8568 5.36215H73.5342C74.5294 5.36215 74.9432 6.63563 74.138 7.22058L72.781 8.20654C72.4209 8.46814 72.2703 8.93183 72.4078 9.35511L72.9261 10.9504C73.2337 11.8969 72.1504 12.684 71.3453 12.099L69.9882 11.113C69.6282 10.8514 69.1406 10.8514 68.7805 11.113L67.4235 12.099C66.6184 12.684 65.5351 11.8969 65.8426 10.9504L66.361 9.35511C66.4985 8.93183 66.3478 8.46814 65.9878 8.20654L64.6307 7.22058C63.8256 6.63563 64.2394 5.36215 65.2345 5.36215H66.912C67.357 5.36215 67.7515 5.07558 67.889 4.6523L68.4073 3.05698Z" fill="#F1C731"/>
<path d="M6.90515 3.05692C7.21267 2.11045 8.55168 2.11045 8.85921 3.05692L9.37756 4.65224C9.51509 5.07551 9.90953 5.36209 10.3546 5.36209H12.032C13.0272 5.36209 13.441 6.63557 12.6358 7.22052L11.2788 8.20648C10.9187 8.46808 10.7681 8.93177 10.9056 9.35505L11.4239 10.9504C11.7315 11.8968 10.6482 12.6839 9.84308 12.0989L8.48602 11.113C8.12596 10.8514 7.6384 10.8514 7.27834 11.113L5.92128 12.0989C5.11616 12.6839 4.03288 11.8968 4.34041 10.9504L4.85876 9.35505C4.99629 8.93177 4.84563 8.46808 4.48557 8.20648L3.12851 7.22052C2.32339 6.63557 2.73716 5.36209 3.73234 5.36209H5.40976C5.85482 5.36209 6.24926 5.07551 6.38679 4.65224L6.90515 3.05692Z" fill="url(#paint0_linear_43_1670)"/>
<path d="M22.2816 3.05698C22.5891 2.11051 23.9281 2.11051 24.2357 3.05698L24.754 4.6523C24.8916 5.07558 25.286 5.36215 25.7311 5.36215H27.4085C28.4037 5.36215 28.8174 6.63563 28.0123 7.22058L26.6553 8.20654C26.2952 8.46814 26.1445 8.93183 26.2821 9.35511L26.8004 10.9504C27.1079 11.8969 26.0247 12.684 25.2195 12.099L23.8625 11.113C23.5024 10.8514 23.0149 10.8514 22.6548 11.113L21.2977 12.099C20.4926 12.684 19.4093 11.8969 19.7169 10.9504L20.2352 9.35511C20.3728 8.93183 20.2221 8.46814 19.862 8.20654L18.505 7.22058C17.6999 6.63563 18.1136 5.36215 19.1088 5.36215H20.7862C21.2313 5.36215 21.6257 5.07558 21.7633 4.6523L22.2816 3.05698Z" fill="url(#paint1_linear_43_1670)"/>
<path d="M37.6564 3.05698C37.9639 2.11051 39.3029 2.11051 39.6104 3.05698L40.1288 4.6523C40.2663 5.07558 40.6608 5.36215 41.1058 5.36215H42.7832C43.7784 5.36215 44.1922 6.63563 43.3871 7.22058L42.03 8.20654C41.6699 8.46814 41.5193 8.93183 41.6568 9.35511L42.1752 10.9504C42.4827 11.8969 41.3994 12.684 40.5943 12.099L39.2372 11.113C38.8772 10.8514 38.3896 10.8514 38.0296 11.113L36.6725 12.099C35.8674 12.684 34.7841 11.8969 35.0916 10.9504L35.61 9.35511C35.7475 8.93183 35.5968 8.46814 35.2368 8.20654L33.8797 7.22058C33.0746 6.63563 33.4884 5.36215 34.4836 5.36215H36.161C36.606 5.36215 37.0005 5.07558 37.138 4.6523L37.6564 3.05698Z" fill="url(#paint2_linear_43_1670)"/>
<path d="M53.0316 3.05698C53.3391 2.11051 54.6781 2.11051 54.9857 3.05698L55.504 4.6523C55.6416 5.07558 56.036 5.36215 56.4811 5.36215H58.1585C59.1537 5.36215 59.5674 6.63563 58.7623 7.22058L57.4053 8.20654C57.0452 8.46814 56.8945 8.93183 57.0321 9.35511L57.5504 10.9504C57.8579 11.8969 56.7747 12.684 55.9695 12.099L54.6125 11.113C54.2524 10.8514 53.7649 10.8514 53.4048 11.113L52.0477 12.099C51.2426 12.684 50.1593 11.8969 50.4669 10.9504L50.9852 9.35511C51.1228 8.93183 50.9721 8.46814 50.612 8.20654L49.255 7.22058C48.4499 6.63563 48.8636 5.36215 49.8588 5.36215H51.5362C51.9813 5.36215 52.3757 5.07558 52.5133 4.6523L53.0316 3.05698Z" fill="url(#paint3_linear_43_1670)"/>
<mask id="mask0_43_1670" style="mask-type:alpha" maskUnits="userSpaceOnUse" x="64" y="2" width="11" height="11">
<path d="M68.4073 3.05698C68.7149 2.11051 70.0539 2.11051 70.3614 3.05698L70.8798 4.6523C71.0173 5.07558 71.4117 5.36215 71.8568 5.36215H73.5342C74.5294 5.36215 74.9432 6.63563 74.138 7.22058L72.781 8.20654C72.4209 8.46814 72.2703 8.93183 72.4078 9.35511L72.9261 10.9504C73.2337 11.8969 72.1504 12.684 71.3453 12.099L69.9882 11.113C69.6282 10.8514 69.1406 10.8514 68.7805 11.113L67.4235 12.099C66.6184 12.684 65.5351 11.8969 65.8426 10.9504L66.361 9.35511C66.4985 8.93183 66.3478 8.46814 65.9878 8.20654L64.6307 7.22058C63.8256 6.63563 64.2394 5.36215 65.2345 5.36215H66.912C67.357 5.36215 67.7515 5.07558 67.889 4.6523L68.4073 3.05698Z" fill="url(#paint4_linear_43_1670)"/>
</mask>
<g mask="url(#mask0_43_1670)">
<rect x="69.3857" y="1.40674" width="5.87894" height="11.7579" fill="#ECECEC"/>
</g>
<defs>
<linearGradient id="paint0_linear_43_1670" x1="0.194336" y1="7.73777" x2="14.6656" y2="7.73777" gradientUnits="userSpaceOnUse">
<stop stop-color="#F8B200"/>
<stop offset="1" stop-color="#FFD642"/>
</linearGradient>
<linearGradient id="paint1_linear_43_1670" x1="15.5708" y1="7.73783" x2="30.042" y2="7.73783" gradientUnits="userSpaceOnUse">
<stop stop-color="#F8B200"/>
<stop offset="1" stop-color="#FFD642"/>
</linearGradient>
<linearGradient id="paint2_linear_43_1670" x1="30.9456" y1="7.73783" x2="45.4168" y2="7.73783" gradientUnits="userSpaceOnUse">
<stop stop-color="#F8B200"/>
<stop offset="1" stop-color="#FFD642"/>
</linearGradient>
<linearGradient id="paint3_linear_43_1670" x1="46.3208" y1="7.73783" x2="60.792" y2="7.73783" gradientUnits="userSpaceOnUse">
<stop stop-color="#F8B200"/>
<stop offset="1" stop-color="#FFD642"/>
</linearGradient>
<linearGradient id="paint4_linear_43_1670" x1="61.6965" y1="7.73783" x2="76.1678" y2="7.73783" gradientUnits="userSpaceOnUse">
<stop stop-color="#F8B200"/>
<stop offset="1" stop-color="#FFD642"/>
</linearGradient>
</defs>
</svg>
