<svg width="12" height="11" viewBox="0 0 12 11" fill="none" xmlns="http://www.w3.org/2000/svg">
<path d="M5.08404 1.17423C5.40867 0.175114 6.82214 0.175116 7.14678 1.17423L7.69396 2.85828C7.83914 3.30509 8.25551 3.60761 8.72532 3.60761H10.496C11.5466 3.60761 11.9834 4.9519 11.1335 5.56939L9.70092 6.61019C9.32084 6.88633 9.16179 7.37582 9.30697 7.82263L9.85415 9.50668C10.1788 10.5058 9.03526 11.3366 8.18536 10.7191L6.75283 9.67833C6.37274 9.40218 5.85807 9.40218 5.47798 9.67833L4.04545 10.7191C3.19555 11.3366 2.05203 10.5058 2.37666 9.50668L2.92384 7.82263C3.06902 7.37582 2.90998 6.88633 2.52989 6.61019L1.09735 5.56939C0.247459 4.9519 0.684249 3.60761 1.73478 3.60761H3.50549C3.9753 3.60761 4.39168 3.30509 4.53686 2.85827L5.08404 1.17423Z" fill="#D0D0D0"/>
</svg>
