<svg width="13" height="14" viewBox="0 0 13 14" fill="none" xmlns="http://www.w3.org/2000/svg">
<path d="M10.4792 10.7292L8.58333 8.83333M4.79167 5.04167L2.89583 3.14583M8.58333 5.04167L10.4792 3.14583M2.89583 10.7292L4.79167 8.83333M12.375 6.9375C12.375 7.68439 12.2279 8.42397 11.9421 9.11401C11.6562 9.80405 11.2373 10.431 10.7092 10.9592C10.181 11.4873 9.55405 11.9062 8.86401 12.1921C8.17397 12.4779 7.43439 12.625 6.6875 12.625C5.94061 12.625 5.20103 12.4779 4.51099 12.1921C3.82095 11.9062 3.19396 11.4873 2.66583 10.9592C2.1377 10.431 1.71876 9.80405 1.43294 9.11401C1.14711 8.42397 1 7.68439 1 6.9375C1 5.42908 1.59922 3.98244 2.66583 2.91583C3.73244 1.84922 5.17908 1.25 6.6875 1.25C8.19592 1.25 9.64256 1.84922 10.7092 2.91583C11.7758 3.98244 12.375 5.42908 12.375 6.9375ZM9.21528 6.9375C9.21528 7.60791 8.94896 8.25086 8.47491 8.72491C8.00086 9.19896 7.35791 9.46528 6.6875 9.46528C6.01709 9.46528 5.37414 9.19896 4.90009 8.72491C4.42604 8.25086 4.15972 7.60791 4.15972 6.9375C4.15972 6.26709 4.42604 5.62414 4.90009 5.15009C5.37414 4.67604 6.01709 4.40972 6.6875 4.40972C7.35791 4.40972 8.00086 4.67604 8.47491 5.15009C8.94896 5.62414 9.21528 6.26709 9.21528 6.9375Z" stroke="black"/>
</svg>
