<svg width="63" height="39" viewBox="0 0 63 39" fill="none" xmlns="http://www.w3.org/2000/svg">
<path d="M20.4598 36.9662C21.8827 36.9662 23.2472 36.4009 24.2534 35.3948C25.2595 34.3887 25.8247 33.0242 25.8247 31.6013C25.8247 30.1785 25.2595 28.8139 24.2534 27.8078C23.2472 26.8017 21.8827 26.2365 20.4598 26.2365C19.037 26.2365 17.6724 26.8017 16.6663 27.8078C15.6602 28.8139 15.095 30.1785 15.095 31.6013C15.095 33.0242 15.6602 34.3887 16.6663 35.3948C17.6724 36.4009 19.037 36.9662 20.4598 36.9662ZM47.2841 36.9662C48.707 36.9662 50.0715 36.4009 51.0776 35.3948C52.0838 34.3887 52.649 33.0242 52.649 31.6013C52.649 30.1785 52.0838 28.8139 51.0776 27.8078C50.0715 26.8017 48.707 26.2365 47.2841 26.2365C45.8613 26.2365 44.4967 26.8017 43.4906 27.8078C42.4845 28.8139 41.9193 30.1785 41.9193 31.6013C41.9193 33.0242 42.4845 34.3887 43.4906 35.3948C44.4967 36.4009 45.8613 36.9662 47.2841 36.9662Z" stroke="white" stroke-width="3.25508" stroke-miterlimit="1.5" stroke-linecap="round" stroke-linejoin="round"/>
<path d="M25.9584 31.6013H39.2364V3.704C39.2364 3.27715 39.0668 2.86777 38.765 2.56594C38.4632 2.26411 38.0538 2.09454 37.6269 2.09454H1.68237M14.1557 31.6013H8.65669C8.44533 31.6013 8.23604 31.5596 8.04078 31.4788C7.84551 31.3979 7.66808 31.2793 7.51863 31.1299C7.36918 30.9804 7.25063 30.803 7.16974 30.6077C7.08886 30.4125 7.04723 30.2032 7.04723 29.9918V16.8479" stroke="white" stroke-width="3.25508" stroke-linecap="round"/>
<path d="M4.36523 10.1419H15.095" stroke="white" stroke-width="3.25508" stroke-linecap="round" stroke-linejoin="round"/>
<path d="M39.2363 10.1419H54.2848C54.5959 10.142 54.9003 10.2322 55.1612 10.4017C55.422 10.5712 55.6282 10.8126 55.7547 11.0969L60.5563 21.9017C60.6477 22.1068 60.6953 22.3289 60.6958 22.5535V29.9919C60.6958 30.2032 60.6541 30.4125 60.5733 30.6078C60.4924 30.8031 60.3738 30.9805 60.2244 31.1299C60.0749 31.2794 59.8975 31.3979 59.7022 31.4788C59.5069 31.5597 59.2977 31.6013 59.0863 31.6013H53.9897M39.2363 31.6013H41.9188" stroke="white" stroke-width="3.25508" stroke-linecap="round"/>
</svg>
