<svg width="13" height="11" viewBox="0 0 13 11" fill="none" xmlns="http://www.w3.org/2000/svg">
<path d="M11.9542 9.66406C11.242 8.43601 10.1363 7.48416 8.81596 6.9625C9.46398 6.47649 9.94264 5.79891 10.1842 5.02574C10.4257 4.25257 10.4178 3.42301 10.1617 2.65456C9.90551 1.88611 9.41407 1.21774 8.75696 0.744112C8.09984 0.270488 7.31035 0.015625 6.50034 0.015625C5.69032 0.015625 4.90084 0.270488 4.24372 0.744112C3.58661 1.21774 3.09516 1.88611 2.83902 2.65456C2.58287 3.42301 2.57499 4.25257 2.81651 5.02574C3.05803 5.79891 3.5367 6.47649 4.18471 6.9625C2.86439 7.48416 1.75867 8.43601 1.04643 9.66406C0.965626 9.80413 0.943769 9.97056 0.985671 10.1267C1.02757 10.2829 1.1298 10.4161 1.26987 10.4969C1.40994 10.5777 1.57637 10.5995 1.73255 10.5576C1.88874 10.5157 2.02188 10.4135 2.10268 10.2734C2.5484 9.50153 3.18944 8.86053 3.96139 8.41487C4.73333 7.96922 5.60899 7.7346 6.50034 7.7346C7.39169 7.7346 8.26734 7.96922 9.03929 8.41487C9.81124 8.86053 10.4523 9.50153 10.898 10.2734C10.9519 10.3658 11.029 10.4425 11.1216 10.4959C11.2142 10.5493 11.3192 10.5777 11.4261 10.5781C11.5331 10.579 11.6384 10.5509 11.7308 10.4969C11.8002 10.4569 11.861 10.4036 11.9098 10.3401C11.9586 10.2766 11.9944 10.2041 12.0151 10.1268C12.0359 10.0494 12.0412 9.96876 12.0307 9.88936C12.0203 9.80996 11.9943 9.73341 11.9542 9.66406ZM3.85971 3.875C3.85971 3.35273 4.01458 2.8422 4.30474 2.40795C4.5949 1.9737 5.00731 1.63524 5.48982 1.43538C5.97233 1.23552 6.50327 1.18322 7.0155 1.28511C7.52773 1.387 7.99825 1.6385 8.36754 2.0078C8.73684 2.37709 8.98834 2.84761 9.09023 3.35984C9.19212 3.87207 9.13982 4.40301 8.93996 4.88552C8.7401 5.36803 8.40164 5.78044 7.96739 6.0706C7.53314 6.36076 7.02261 6.51562 6.50034 6.51562C5.8 6.51562 5.12835 6.23742 4.63314 5.7422C4.13792 5.24699 3.85971 4.57534 3.85971 3.875Z" fill="black"/>
</svg>
