<svg width="19" height="19" viewBox="0 0 19 19" fill="none" xmlns="http://www.w3.org/2000/svg">
<circle cx="9.33051" cy="9.08142" r="8.61619" stroke="#5F5F5F" stroke-width="0.711838"/>
<path d="M9.66327 13.8998C9.59948 13.9005 9.53663 13.8844 9.48102 13.8531C9.28008 13.741 4.61646 11.0914 4.61646 7.73152C4.61646 7.14305 4.80161 6.5695 5.14569 6.09212C5.48977 5.61473 5.97534 5.2577 6.5336 5.07162C7.09187 4.88553 7.69454 4.87981 8.25624 5.05527C8.81793 5.23073 9.31019 5.57848 9.66327 6.04925C10.0163 5.57848 10.5086 5.23073 11.0703 5.05527C11.632 4.87981 12.2347 4.88553 12.7929 5.07162C13.3512 5.2577 13.8368 5.61473 14.1808 6.09212C14.5249 6.5695 14.7101 7.14305 14.7101 7.73152C14.7101 9.16145 13.883 10.6288 12.2521 12.0961C11.5115 12.7618 10.7052 13.3505 9.84551 13.8531C9.7899 13.8844 9.72706 13.9005 9.66327 13.8998ZM7.42024 5.67541C6.87493 5.67541 6.35195 5.89203 5.96635 6.27763C5.58076 6.66322 5.36413 7.1862 5.36413 7.73152C5.36413 10.311 8.82213 12.5774 9.66327 13.0914C10.5044 12.5774 13.9624 10.311 13.9624 7.73152C13.9628 7.25619 13.7986 6.7954 13.4976 6.42754C13.1965 6.05968 12.7774 5.80747 12.3114 5.71383C11.8454 5.62019 11.3613 5.6909 10.9415 5.91392C10.5218 6.13695 10.1923 6.49852 10.0091 6.93711C9.9809 7.00568 9.93299 7.06432 9.87142 7.10559C9.80984 7.14687 9.73739 7.1689 9.66327 7.1689C9.58914 7.1689 9.51669 7.14687 9.45512 7.10559C9.39354 7.06432 9.34563 7.00568 9.31747 6.93711C9.16187 6.56246 8.89844 6.2425 8.56065 6.01786C8.22285 5.79322 7.82591 5.67402 7.42024 5.67541Z" fill="#5F5F5F"/>
</svg>
