<svg width="20" height="18" viewBox="0 0 20 18" fill="none" xmlns="http://www.w3.org/2000/svg">
<path d="M19.3534 5.65474C19.3534 8.34736 17.7959 11.1104 14.7249 13.8734C13.3304 15.127 11.812 16.2356 10.1932 17.182C10.0881 17.2397 9.97002 17.27 9.85004 17.27C9.73006 17.27 9.61202 17.2397 9.50687 17.182C9.12849 16.9708 0.34668 11.9815 0.34668 5.65474C0.34668 4.54663 0.695334 3.46662 1.34325 2.56767C1.99117 1.66873 2.90551 0.996439 3.95676 0.646026C5.008 0.295612 6.14284 0.284843 7.20055 0.615244C8.25825 0.945645 9.18518 1.60047 9.85004 2.48695C10.5149 1.60047 11.4418 0.945645 12.4995 0.615244C13.5572 0.284843 14.6921 0.295612 15.7433 0.646026C16.7946 0.996439 17.7089 1.66873 18.3568 2.56767C19.0048 3.46662 19.3534 4.54663 19.3534 5.65474Z" fill="#FF1616"/>
</svg>
