<svg width="20" height="17" viewBox="0 0 20 17" fill="none" xmlns="http://www.w3.org/2000/svg">
<path d="M19.8407 5.29378C19.8407 7.9864 18.2832 10.7494 15.2122 13.5124C13.8177 14.7661 12.2993 15.8746 10.6805 16.821C10.5754 16.8788 10.4573 16.9091 10.3373 16.9091C10.2174 16.9091 10.0993 16.8788 9.99417 16.821C9.6158 16.6098 0.833984 11.6206 0.833984 5.29378C0.833984 4.18567 1.18264 3.10565 1.83056 2.20671C2.47848 1.30777 3.39282 0.635478 4.44406 0.285064C5.4953 -0.0653499 6.63015 -0.076119 7.68785 0.254282C8.74555 0.584683 9.67248 1.2395 10.3373 2.12599C11.0022 1.2395 11.9291 0.584683 12.9868 0.254282C14.0445 -0.076119 15.1794 -0.0653499 16.2306 0.285064C17.2819 0.635478 18.1962 1.30777 18.8441 2.20671C19.4921 3.10565 19.8407 4.18567 19.8407 5.29378Z" fill="#010B1B"/>
</svg>
