<svg width="18" height="18" viewBox="0 0 18 18" fill="none" xmlns="http://www.w3.org/2000/svg">
<circle cx="8.74658" cy="8.77035" r="8.2248" stroke="white" stroke-width="0.355572"/>
<path d="M9.05775 13.2828C8.99801 13.2834 8.93916 13.2683 8.88708 13.239C8.69889 13.134 4.3313 10.6526 4.3313 7.50603C4.3313 6.95492 4.5047 6.41777 4.82694 5.97069C5.14918 5.5236 5.60392 5.18924 6.12675 5.01497C6.64958 4.84069 7.214 4.83533 7.74004 4.99966C8.26608 5.16398 8.72709 5.48965 9.05775 5.93054C9.38842 5.48965 9.84943 5.16398 10.3755 4.99966C10.9015 4.83533 11.4659 4.84069 11.9888 5.01497C12.5116 5.18924 12.9663 5.5236 13.2886 5.97069C13.6108 6.41777 13.7842 6.95492 13.7842 7.50603C13.7842 8.84519 13.0096 10.2194 11.4823 11.5935C10.7887 12.217 10.0335 12.7684 9.22843 13.239C9.17635 13.2683 9.1175 13.2834 9.05775 13.2828ZM6.95711 5.58043C6.44641 5.58043 5.95663 5.78331 5.59551 6.14443C5.23439 6.50555 5.03151 6.99533 5.03151 7.50603C5.03151 9.92177 8.27001 12.0443 9.05775 12.5257C9.8455 12.0443 13.084 9.92177 13.084 7.50603C13.0844 7.06088 12.9306 6.62933 12.6487 6.28482C12.3667 5.94031 11.9742 5.70412 11.5378 5.61642C11.1013 5.52872 10.648 5.59494 10.2549 5.80381C9.86179 6.01268 9.55319 6.35129 9.3816 6.76205C9.35523 6.82626 9.31036 6.88118 9.25269 6.91984C9.19503 6.95849 9.12718 6.97913 9.05775 6.97913C8.98834 6.97913 8.92048 6.95849 8.86282 6.91984C8.80515 6.88118 8.76028 6.82626 8.73391 6.76205C8.58818 6.41118 8.34148 6.11153 8.02513 5.90115C7.70877 5.69076 7.33703 5.57913 6.95711 5.58043Z" fill="white"/>
</svg>
